<svg width="58" height="18" viewBox="0 0 58 18" fill="none" xmlns="http://www.w3.org/2000/svg">
<g clip-path="url(#clip0_103_300)">
<path d="M35.9742 13.7655C32.6078 16.2631 27.7283 17.5957 23.5272 17.5957C17.6365 17.5957 12.3334 15.4027 8.32143 11.7553C8.00622 11.4685 8.28864 11.0776 8.6669 11.301C12.9966 13.8366 18.3502 15.3621 23.8802 15.3621C27.6098 15.3621 31.7126 14.5854 35.485 12.9736C36.0549 12.73 36.5315 13.3493 35.9742 13.7655Z" fill="#FF9900"/>
<path d="M37.3733 12.1536C36.9446 11.6003 34.5288 11.8922 33.4445 12.0217C33.1142 12.0623 33.0637 11.7729 33.3613 11.5648C35.2854 10.2018 38.4425 10.5952 38.8107 11.0521C39.1788 11.5115 38.7148 14.6969 36.9068 16.2173C36.6294 16.4508 36.3646 16.3264 36.4882 16.0167C36.8942 14.9964 37.8045 12.7095 37.3733 12.1536Z" fill="#FF9900"/>
<path d="M33.5204 1.94244V0.617509C33.5204 0.416994 33.6717 0.282471 33.8533 0.282471H39.7465C39.9356 0.282471 40.0869 0.419532 40.0869 0.617509V1.75207C40.0844 1.94244 39.9255 2.19118 39.6431 2.58459L36.5893 6.97309C37.7241 6.94518 38.9219 7.11523 39.9507 7.69901C40.1827 7.831 40.2458 8.0239 40.2634 8.21426V9.62802C40.2634 9.82092 40.0516 10.0468 39.8297 9.93007C38.0166 8.97317 35.6084 8.86911 33.6037 9.94022C33.3994 10.0519 33.1851 9.82854 33.1851 9.63564V8.29294C33.1851 8.0772 33.1876 7.70916 33.4019 7.38174L36.9398 2.27494H33.8609C33.6717 2.27494 33.5204 2.14041 33.5204 1.94244Z" fill="#221F1F"/>
<path d="M12.0231 10.2094H10.2302C10.0587 10.1967 9.92252 10.0673 9.90991 9.90228V0.64049C9.90991 0.455204 10.0637 0.307988 10.2554 0.307988H11.9273C12.1013 0.315598 12.24 0.450126 12.2526 0.617645V1.82835H12.2853C12.7216 0.658256 13.5411 0.112549 14.6456 0.112549C15.7678 0.112549 16.4688 0.658256 16.9732 1.82835C17.4069 0.658256 18.3929 0.112549 19.4495 0.112549C20.2009 0.112549 21.023 0.424744 21.5248 1.12528C22.0922 1.9045 21.9762 3.03652 21.9762 4.02895L21.9737 9.87436C21.9737 10.0596 21.8198 10.2094 21.6282 10.2094H19.8378C19.6588 10.1967 19.515 10.052 19.515 9.87436V4.96554C19.515 4.57466 19.5503 3.6 19.4646 3.22942C19.3309 2.60757 18.93 2.43244 18.4105 2.43244C17.9768 2.43244 17.5229 2.72433 17.3388 3.19135C17.1547 3.65838 17.1724 4.44013 17.1724 4.96554V9.87436C17.1724 10.0596 17.0185 10.2094 16.8269 10.2094H15.0365C14.8549 10.1967 14.7137 10.052 14.7137 9.87436L14.7112 4.96554C14.7112 3.9325 14.8802 2.41213 13.6067 2.41213C12.3181 2.41213 12.3686 3.89443 12.3686 4.96554V9.87436C12.3686 10.0596 12.2147 10.2094 12.0231 10.2094Z" fill="#221F1F"/>
<path d="M45.1604 0.112549C47.8208 0.112549 49.2607 2.41213 49.2607 5.33611C49.2607 8.16109 47.6695 10.4023 45.1604 10.4023C42.548 10.4023 41.1257 8.10272 41.1257 5.23712C41.1257 2.35376 42.5656 0.112549 45.1604 0.112549ZM45.1756 2.00349C43.8542 2.00349 43.771 3.81574 43.771 4.94523C43.771 6.07726 43.7533 8.4936 45.1604 8.4936C46.5499 8.4936 46.6154 6.54428 46.6154 5.35641C46.6154 4.57466 46.5827 3.64061 46.3481 2.89946C46.1464 2.25477 45.7455 2.00349 45.1756 2.00349Z" fill="#221F1F"/>
<path d="M52.7105 10.2094H50.9251C50.7461 10.1967 50.6024 10.052 50.6024 9.87436L50.5999 0.610031C50.615 0.439973 50.7638 0.307988 50.9453 0.307988H52.6071C52.7635 0.315598 52.8921 0.422206 52.9274 0.566882V1.98318H52.9602C53.462 0.716634 54.1655 0.112549 55.4037 0.112549C56.2081 0.112549 56.9923 0.404439 57.4967 1.20396C57.9657 1.94511 57.9657 3.19135 57.9657 4.08733V9.91751C57.9455 10.08 57.7967 10.2094 57.6202 10.2094H55.8223C55.6584 10.1967 55.5222 10.0749 55.5045 9.91751V4.88685C55.5045 3.87412 55.6205 2.39183 54.3824 2.39183C53.9461 2.39183 53.5452 2.68626 53.346 3.13297C53.0938 3.69899 53.061 4.26246 53.061 4.88685V9.87436C53.0585 10.0596 52.9022 10.2094 52.7105 10.2094Z" fill="#221F1F"/>
<path d="M28.8225 5.78509V5.39421C27.5263 5.39421 26.1571 5.67341 26.1571 7.21154C26.1571 7.99076 26.558 8.5187 27.2464 8.5187C27.7508 8.5187 28.2021 8.20651 28.4871 7.69887C28.8401 7.07448 28.8225 6.48816 28.8225 5.78509ZM30.6305 10.1837C30.512 10.2903 30.3405 10.298 30.2069 10.2269C29.6118 9.72941 29.5059 9.49844 29.178 9.0238C28.1946 10.034 27.4986 10.336 26.2226 10.336C24.7147 10.336 23.5396 9.39945 23.5396 7.52374C23.5396 6.05921 24.3288 5.06171 25.451 4.57438C26.4244 4.14289 27.7835 4.06675 28.8225 3.94745V3.71394C28.8225 3.28499 28.8553 2.77735 28.6056 2.40678C28.3862 2.07428 27.9676 1.93722 27.5995 1.93722C26.9161 1.93722 26.3058 2.29003 26.1571 3.02102C26.1268 3.18346 26.0083 3.34337 25.8469 3.35098L24.1069 3.16316C23.9607 3.13016 23.7993 3.01087 23.8396 2.78497C24.2406 0.663059 26.1445 0.0234375 27.8491 0.0234375C28.7216 0.0234375 29.8614 0.256949 30.5498 0.92195C31.4223 1.74178 31.3391 2.83573 31.3391 4.02614V6.83843C31.3391 7.68364 31.6871 8.05422 32.0149 8.51109C32.1309 8.67353 32.1562 8.86897 32.0099 8.9908C31.6443 9.29792 30.9937 9.86901 30.6356 10.1888L30.6305 10.1837Z" fill="#221F1F"/>
<path d="M5.31785 5.78509V5.39421C4.0217 5.39421 2.65242 5.67341 2.65242 7.21154C2.65242 7.99076 3.05337 8.5187 3.74179 8.5187C4.24613 8.5187 4.69751 8.20651 4.98246 7.69887C5.3355 7.07448 5.31785 6.48816 5.31785 5.78509ZM7.12589 10.1837C7.00738 10.2903 6.8359 10.298 6.70225 10.2269C6.10713 9.72941 6.00122 9.49844 5.6734 9.0238C4.68994 10.034 3.99396 10.336 2.71799 10.336C1.21002 10.336 0.0349121 9.39945 0.0349121 7.52374C0.0349121 6.05921 0.8242 5.06171 1.94635 4.57438C2.91972 4.14289 4.27891 4.06675 5.31785 3.94745V3.71394C5.31785 3.28499 5.35063 2.77735 5.10098 2.40678C4.88159 2.07428 4.46299 1.93722 4.09483 1.93722C3.41145 1.93722 2.8012 2.29003 2.65242 3.02102C2.62216 3.18346 2.50364 3.34337 2.34226 3.35098L0.602292 3.16316C0.456034 3.13016 0.294645 3.01087 0.334992 2.78497C0.735941 0.663059 2.63981 0.0234375 4.34447 0.0234375C5.21698 0.0234375 6.35678 0.256949 7.0452 0.92195C7.9177 1.74178 7.83449 2.83573 7.83449 4.02614V6.83843C7.83449 7.68364 8.18248 8.05422 8.5103 8.51109C8.6263 8.67353 8.65152 8.86897 8.50526 8.9908C8.13961 9.29792 7.48902 9.86901 7.13094 10.1888L7.12589 10.1837Z" fill="#221F1F"/>
</g>
<defs>
<clipPath id="clip0_103_300">
<rect width="58" height="17.5058" fill="white"/>
</clipPath>
</defs>
</svg>
