<?xml version="1.0" encoding="UTF-8"?>
<svg version="1.1" xmlns="http://www.w3.org/2000/svg" width="334" height="334">
<path d="M0 0 C0.79760742 0.19335938 1.59521484 0.38671875 2.41699219 0.5859375 C27.08341818 6.6473118 50.79282478 17.10448481 70 34 C70.77988281 34.67160156 71.55976563 35.34320313 72.36328125 36.03515625 C74.95417694 38.31200397 77.48391127 40.640711 80 43 C80.75651855 43.70552002 80.75651855 43.70552002 81.52832031 44.42529297 C105.282363 66.75524972 120.10749213 95.55798975 128 127 C128.17934082 127.70898438 128.35868164 128.41796875 128.54345703 129.1484375 C133.70521736 150.88216519 133.56755602 178.42572042 128 200 C127.80664062 200.79760742 127.61328125 201.59521484 127.4140625 202.41699219 C121.3526882 227.08341818 110.89551519 250.79282478 94 270 C93.32839844 270.77988281 92.65679687 271.55976563 91.96484375 272.36328125 C89.68799603 274.95417694 87.359289 277.48391127 85 280 C84.52965332 280.5043457 84.05930664 281.00869141 83.57470703 281.52832031 C61.24475028 305.282363 32.44201025 320.10749213 1 328 C0.29101562 328.17934082 -0.41796875 328.35868164 -1.1484375 328.54345703 C-22.88216519 333.70521736 -50.42572042 333.56755602 -72 328 C-72.79760742 327.80664062 -73.59521484 327.61328125 -74.41699219 327.4140625 C-99.08341818 321.3526882 -122.79282478 310.89551519 -142 294 C-142.77988281 293.32839844 -143.55976563 292.65679687 -144.36328125 291.96484375 C-146.95417694 289.68799603 -149.48391127 287.359289 -152 285 C-152.5043457 284.52965332 -153.00869141 284.05930664 -153.52832031 283.57470703 C-177.282363 261.24475028 -192.10749213 232.44201025 -200 201 C-200.17934082 200.29101562 -200.35868164 199.58203125 -200.54345703 198.8515625 C-205.70521736 177.11783481 -205.56755602 149.57427958 -200 128 C-199.80664062 127.20239258 -199.61328125 126.40478516 -199.4140625 125.58300781 C-193.3526882 100.91658182 -182.89551519 77.20717522 -166 58 C-164.99259766 56.83017578 -164.99259766 56.83017578 -163.96484375 55.63671875 C-161.68799603 53.04582306 -159.359289 50.51608873 -157 48 C-156.52965332 47.4956543 -156.05930664 46.99130859 -155.57470703 46.47167969 C-133.24475028 22.717637 -104.44201025 7.89250787 -73 0 C-72.29101562 -0.17934082 -71.58203125 -0.35868164 -70.8515625 -0.54345703 C-49.11783481 -5.70521736 -21.57427958 -5.56755602 0 0 Z " fill="#E91315" transform="translate(203,3)"/>
<path d="M0 0 C3.82573912 2.86267777 5.42460831 6.06503425 6.44140625 10.640625 C6.52390625 11.506875 6.60640625 12.373125 6.69140625 13.265625 C7.27148438 13.21921875 7.8515625 13.1728125 8.44921875 13.125 C14.07344582 12.86513472 17.33938274 13.32807992 21.69140625 17.265625 C24.72667756 21.71735626 25.55835267 25.9742624 24.69140625 31.265625 C22.41254579 38.76149934 17.12272359 43.54246909 10.59375 47.5546875 C4.51979517 50.6192237 -1.58399165 51.03805809 -8.30859375 51.265625 C-7.77492187 51.52214844 -7.24125 51.77867188 -6.69140625 52.04296875 C7.09574266 59.12736879 17.40494995 70.71302057 22.69140625 85.265625 C29.18333872 108.38163215 33.81274302 143.50136717 21.62888145 165.46008205 C9.71313924 185.12362879 -11.8464422 207.810233 -34.81054688 213.48681641 C-48.79537651 215.9573494 -68.44953002 216.68497953 -81.55535889 210.14434814 C-84.1416814 207.37290886 -83.8375683 204.63536614 -83.76269531 201.0402832 C-83.76327942 200.30832733 -83.76386353 199.57637146 -83.76446533 198.82223511 C-83.76167882 196.40314283 -83.73056213 193.98528321 -83.69921875 191.56640625 C-83.69175833 189.88918226 -83.68606446 188.21194956 -83.68206787 186.53471375 C-83.66679576 182.12039114 -83.62750073 177.70659505 -83.58325195 173.29248047 C-83.54233304 168.7881584 -83.5240641 164.28375124 -83.50390625 159.77929688 C-83.4610077 150.94117493 -83.39273756 142.10344375 -83.30859375 133.265625 C-84.22398422 133.06585304 -84.22398422 133.06585304 -85.15786743 132.86204529 C-85.96251434 132.6851265 -86.76716125 132.5082077 -87.59619141 132.32592773 C-88.39207672 132.15149643 -89.18796204 131.97706512 -90.00796509 131.79734802 C-92.95217904 131.11687908 -95.81170817 130.2665758 -98.68359375 129.328125 C-99.68132812 129.00972656 -100.6790625 128.69132813 -101.70703125 128.36328125 C-104.30733141 127.26615761 -105.63279584 126.50903188 -107.30859375 124.265625 C-107.99609375 122.078125 -107.99609375 122.078125 -108.30859375 120.265625 C-109.08783203 120.77222656 -109.08783203 120.77222656 -109.8828125 121.2890625 C-110.58019531 121.73507813 -111.27757812 122.18109375 -111.99609375 122.640625 C-112.68058594 123.08148438 -113.36507812 123.52234375 -114.0703125 123.9765625 C-120.42449124 127.63603717 -126.0781818 128.21507303 -133.30859375 127.265625 C-147.63403754 123.27154216 -147.63403754 123.27154216 -151.30859375 118.265625 C-151.49609375 115.578125 -151.49609375 115.578125 -151.30859375 113.265625 C-152.17484375 113.183125 -153.04109375 113.100625 -153.93359375 113.015625 C-159.35278552 111.81136016 -163.87337054 108.62571599 -167.30859375 104.265625 C-167.41015625 101.63671875 -167.41015625 101.63671875 -167.30859375 99.265625 C-166.49068359 98.91564453 -166.49068359 98.91564453 -165.65625 98.55859375 C-159.18283842 95.42701174 -155.47389058 91.28968501 -151.15625 85.59375 C-149.30859375 83.265625 -149.30859375 83.265625 -147.30859375 82.265625 C-147.01984375 81.29625 -146.73109375 80.326875 -146.43359375 79.328125 C-145.30859375 76.265625 -145.30859375 76.265625 -143.61328125 75.1015625 C-135.43257687 72.13432396 -126.68155106 74.16273437 -119.0546875 77.6875 C-114.96923793 80.03532593 -111.59759113 82.90891297 -108.30859375 86.265625 C-107.63570312 85.03779297 -107.63570312 85.03779297 -106.94921875 83.78515625 C-103.49183164 80.48631796 -101.46961184 80.7424408 -96.84765625 80.82617188 C-95.92726563 80.86806641 -95.006875 80.90996094 -94.05859375 80.953125 C-93.12273437 80.97568359 -92.186875 80.99824219 -91.22265625 81.02148438 C-88.91633701 81.08031905 -86.61328537 81.16245354 -84.30859375 81.265625 C-84.31383057 80.37254639 -84.31906738 79.47946777 -84.32446289 78.55932617 C-84.34151161 75.24388992 -84.35404722 71.9285003 -84.36352539 68.61303711 C-84.36855217 67.17845932 -84.37537454 65.74388664 -84.3840332 64.30932617 C-84.39617127 62.24656918 -84.40183861 60.18387996 -84.40625 58.12109375 C-84.41148682 56.87996826 -84.41672363 55.63884277 -84.42211914 54.36010742 C-84.30859375 51.265625 -84.30859375 51.265625 -83.30859375 48.265625 C-83.34726563 47.18539062 -83.3859375 46.10515625 -83.42578125 44.9921875 C-83.07729178 33.9102224 -73.59187319 22.19089564 -66.30859375 14.265625 C-59.45377939 8.64009346 -54.18345426 6.42573284 -45.30859375 7.265625 C-42.37109375 8.765625 -42.37109375 8.765625 -40.30859375 10.265625 C-36.43244256 10.265625 -35.85177497 9.16414413 -33.12109375 6.515625 C-24.04524083 -1.83593347 -11.55958487 -6.63216586 0 0 Z " fill="#E9181A" transform="translate(226.30859375,62.734375)"/>
<path d="M0 0 C3.82573912 2.86267777 5.42460831 6.06503425 6.44140625 10.640625 C6.52390625 11.506875 6.60640625 12.373125 6.69140625 13.265625 C7.27148438 13.21921875 7.8515625 13.1728125 8.44921875 13.125 C14.07344582 12.86513472 17.33938274 13.32807992 21.69140625 17.265625 C24.72667756 21.71735626 25.55835267 25.9742624 24.69140625 31.265625 C22.41254579 38.76149934 17.12272359 43.54246909 10.59375 47.5546875 C4.51979517 50.6192237 -1.58399165 51.03805809 -8.30859375 51.265625 C-7.77492187 51.52214844 -7.24125 51.77867188 -6.69140625 52.04296875 C7.09574266 59.12736879 17.40494995 70.71302057 22.69140625 85.265625 C29.18333872 108.38163215 33.81274302 143.50136717 21.62888145 165.46008205 C9.71313924 185.12362879 -11.8464422 207.810233 -34.81054688 213.48681641 C-48.79537651 215.9573494 -68.44953002 216.68497953 -81.55535889 210.14434814 C-84.1416814 207.37290886 -83.8375683 204.63536614 -83.76269531 201.0402832 C-83.76327942 200.30832733 -83.76386353 199.57637146 -83.76446533 198.82223511 C-83.76167882 196.40314283 -83.73056213 193.98528321 -83.69921875 191.56640625 C-83.69175833 189.88918226 -83.68606446 188.21194956 -83.68206787 186.53471375 C-83.66679576 182.12039114 -83.62750073 177.70659505 -83.58325195 173.29248047 C-83.54233304 168.7881584 -83.5240641 164.28375124 -83.50390625 159.77929688 C-83.4610077 150.94117493 -83.39273756 142.10344375 -83.30859375 133.265625 C-84.22398422 133.06585304 -84.22398422 133.06585304 -85.15786743 132.86204529 C-85.96251434 132.6851265 -86.76716125 132.5082077 -87.59619141 132.32592773 C-88.39207672 132.15149643 -89.18796204 131.97706512 -90.00796509 131.79734802 C-92.95217904 131.11687908 -95.81170817 130.2665758 -98.68359375 129.328125 C-99.68132812 129.00972656 -100.6790625 128.69132813 -101.70703125 128.36328125 C-104.30733141 127.26615761 -105.63279584 126.50903188 -107.30859375 124.265625 C-107.99609375 122.078125 -107.99609375 122.078125 -108.30859375 120.265625 C-109.08783203 120.77222656 -109.08783203 120.77222656 -109.8828125 121.2890625 C-110.58019531 121.73507813 -111.27757812 122.18109375 -111.99609375 122.640625 C-112.68058594 123.08148438 -113.36507812 123.52234375 -114.0703125 123.9765625 C-120.42449124 127.63603717 -126.0781818 128.21507303 -133.30859375 127.265625 C-147.63403754 123.27154216 -147.63403754 123.27154216 -151.30859375 118.265625 C-151.49609375 115.578125 -151.49609375 115.578125 -151.30859375 113.265625 C-152.17484375 113.183125 -153.04109375 113.100625 -153.93359375 113.015625 C-159.35278552 111.81136016 -163.87337054 108.62571599 -167.30859375 104.265625 C-167.41015625 101.63671875 -167.41015625 101.63671875 -167.30859375 99.265625 C-166.49068359 98.91564453 -166.49068359 98.91564453 -165.65625 98.55859375 C-159.18283842 95.42701174 -155.47389058 91.28968501 -151.15625 85.59375 C-149.30859375 83.265625 -149.30859375 83.265625 -147.30859375 82.265625 C-147.01984375 81.29625 -146.73109375 80.326875 -146.43359375 79.328125 C-145.30859375 76.265625 -145.30859375 76.265625 -143.61328125 75.1015625 C-135.43257687 72.13432396 -126.68155106 74.16273437 -119.0546875 77.6875 C-114.96923793 80.03532593 -111.59759113 82.90891297 -108.30859375 86.265625 C-107.63570312 85.03779297 -107.63570312 85.03779297 -106.94921875 83.78515625 C-103.49183164 80.48631796 -101.46961184 80.7424408 -96.84765625 80.82617188 C-95.92726563 80.86806641 -95.006875 80.90996094 -94.05859375 80.953125 C-93.12273437 80.97568359 -92.186875 80.99824219 -91.22265625 81.02148438 C-88.91633701 81.08031905 -86.61328537 81.16245354 -84.30859375 81.265625 C-84.31383057 80.37254639 -84.31906738 79.47946777 -84.32446289 78.55932617 C-84.34151161 75.24388992 -84.35404722 71.9285003 -84.36352539 68.61303711 C-84.36855217 67.17845932 -84.37537454 65.74388664 -84.3840332 64.30932617 C-84.39617127 62.24656918 -84.40183861 60.18387996 -84.40625 58.12109375 C-84.41148682 56.87996826 -84.41672363 55.63884277 -84.42211914 54.36010742 C-84.30859375 51.265625 -84.30859375 51.265625 -83.30859375 48.265625 C-83.34726563 47.18539062 -83.3859375 46.10515625 -83.42578125 44.9921875 C-83.07729178 33.9102224 -73.59187319 22.19089564 -66.30859375 14.265625 C-59.45377939 8.64009346 -54.18345426 6.42573284 -45.30859375 7.265625 C-42.37109375 8.765625 -42.37109375 8.765625 -40.30859375 10.265625 C-36.43244256 10.265625 -35.85177497 9.16414413 -33.12109375 6.515625 C-24.04524083 -1.83593347 -11.55958487 -6.63216586 0 0 Z M-80.30859375 51.265625 C-80.39703168 53.71392926 -80.42388127 56.13383099 -80.40625 58.58203125 C-80.40412758 59.67861305 -80.40412758 59.67861305 -80.40196228 60.79734802 C-80.39634783 63.14098132 -80.38379297 65.48452039 -80.37109375 67.828125 C-80.36608061 69.41341008 -80.36151738 70.99869666 -80.35742188 72.58398438 C-80.34722296 76.47793043 -80.32765062 80.37167177 -80.30859375 84.265625 C-87.89859375 84.265625 -95.48859375 84.265625 -103.30859375 84.265625 C-103.63859375 85.585625 -103.96859375 86.905625 -104.30859375 88.265625 C-102.16507504 90.12252812 -100.01940399 91.97677578 -97.87109375 93.828125 C-97.23671387 94.3751709 -96.60233398 94.9222168 -95.94873047 95.48583984 C-91.67922308 99.14680979 -87.3276406 102.64079439 -82.78515625 105.9609375 C-82.29789063 106.39148438 -81.810625 106.82203125 -81.30859375 107.265625 C-81.30859375 107.925625 -81.30859375 108.585625 -81.30859375 109.265625 C-92.69359375 114.215625 -92.69359375 114.215625 -104.30859375 119.265625 C-103.80888528 123.26237064 -103.80888528 123.26237064 -101.4453125 124.390625 C-96.63145803 126.11040714 -91.80439702 127.7791298 -86.953125 129.390625 C-85.8906958 129.74382812 -84.8282666 130.09703125 -83.73364258 130.4609375 C-82.93337646 130.72648437 -82.13311035 130.99203125 -81.30859375 131.265625 C-81.29828629 132.2030101 -81.28797882 133.1403952 -81.27735901 134.10618591 C-81.17979203 142.92091142 -81.07707424 151.7355637 -80.96925449 160.55016994 C-80.91398453 165.08233086 -80.86055816 169.61449818 -80.8112793 174.14672852 C-80.76369564 178.51691048 -80.71135527 182.88701148 -80.655653 187.25709724 C-80.63520217 188.92811135 -80.61649369 190.59914769 -80.59951973 192.27020073 C-80.57553582 194.6026606 -80.54547355 196.93496607 -80.51391602 199.26733398 C-80.50816055 199.9650441 -80.50240509 200.66275421 -80.49647522 201.38160706 C-80.71418739 204.60355524 -80.71418739 204.60355524 -79.30859375 207.265625 C-63.81954294 211.22634222 -41.0319193 214.27057272 -26.51953125 206.28063965 C-9.0325077 195.11224459 4.97924207 177.12024108 17.97181702 161.20814514 C19.69140625 159.265625 19.69140625 159.265625 21.69140625 158.265625 C21.78472057 150.14563945 21.85547859 142.02588366 21.89865494 133.90549183 C21.91939359 130.13349573 21.94745422 126.36187058 21.99316406 122.59008789 C22.03711952 118.93958155 22.06064605 115.28942847 22.07091522 111.6386776 C22.07821872 110.25661354 22.09247625 108.87456542 22.11432648 107.4926548 C22.36304058 91.08722636 17.86955913 77.28852637 6.65234375 65.140625 C-3.32667598 55.59893283 -16.19467997 50.14768165 -30.02270508 50.13623047 C-31.12016556 50.13307831 -32.21762604 50.12992615 -33.3483429 50.12667847 C-34.51729599 50.1287027 -35.68624908 50.13072693 -36.890625 50.1328125 C-38.10054611 50.13185577 -39.31046722 50.13089905 -40.55705261 50.12991333 C-43.1063136 50.1292343 -45.65557634 50.13106925 -48.20483398 50.13525391 C-52.12422514 50.14062929 -56.04350291 50.13528762 -59.96289062 50.12890625 C-62.43880234 50.12956662 -64.91471398 50.13084694 -67.390625 50.1328125 C-68.56969925 50.13078827 -69.7487735 50.12876404 -70.96357727 50.12667847 C-72.58612679 50.13140671 -72.58612679 50.13140671 -74.24145508 50.13623047 C-75.19820633 50.13702606 -76.15495758 50.13782166 -77.14070129 50.13864136 C-79.28796621 50.02348107 -79.28796621 50.02348107 -80.30859375 51.265625 Z " fill="#FDEEEE" transform="translate(226.30859375,62.734375)"/>
<path d="M0 0 C12.0249583 3.15408742 21.3590995 10.50406428 28 21 C31.80313913 28.59679412 34.13177229 35.46234215 34.11352539 43.98364258 C34.11341209 45.75491264 34.11341209 45.75491264 34.11329651 47.56196594 C34.10813522 48.82671249 34.10297394 50.09145905 34.09765625 51.39453125 C34.0962413 52.69702316 34.09482635 53.99951508 34.09336853 55.34147644 C34.08956355 58.79216454 34.07975064 62.24281008 34.06866455 65.69348145 C34.05840689 69.21947646 34.05380669 72.74547861 34.04882812 76.27148438 C34.03865806 83.18102709 34.01908129 90.09045314 34 97 C18.16 97.33 2.32 97.66 -14 98 C-14.33 113.51 -14.66 129.02 -15 145 C-29.19 145 -43.38 145 -58 145 C-58 123.22 -58 101.44 -58 79 C-57.34 79.99 -56.68 80.98 -56 82 C-53.21445047 85.9384875 -53.21445047 85.9384875 -49 88 C-44.80012182 88.38887761 -42.70392762 88.45908323 -39.125 86.125 C-36.21632102 83.21632102 -35.74911174 81.39815464 -35.5 77.375 C-35.5 71.79896145 -37.630803 69.69309455 -41.421875 65.87890625 C-43 64 -43 64 -43.75 60.25 C-43 57 -43 57 -40.875 54.5625 C-37.47952129 52.71713114 -35.81229932 52.45538581 -32 53 C-31.12601563 53.49242187 -30.25203125 53.98484375 -29.3515625 54.4921875 C-21.99626079 57.80121601 -12.25326877 57.2996099 -4.625 54.96875 C3.26664583 51.02292708 8.74802151 44.84121417 11.9375 36.625 C14.52744138 27.30121102 13.36103195 18.58869901 9 10 C7.20167448 7.42693894 5.23736852 5.19560431 3 3 C2.16662109 2.1646875 2.16662109 2.1646875 1.31640625 1.3125 C0.88199219 0.879375 0.44757813 0.44625 0 0 Z " fill="#FEFDFD" transform="translate(209,120)"/>
<path d="M0 0 C2.17193195 1.56032362 3.40695531 2.95261426 4.76171875 5.265625 C5.0546875 7.84375 5.0546875 7.84375 4.94921875 10.515625 C4.90861328 11.85367188 4.90861328 11.85367188 4.8671875 13.21875 C4.83238281 13.89421875 4.79757813 14.5696875 4.76171875 15.265625 C5.35082031 14.94207031 5.93992187 14.61851563 6.546875 14.28515625 C9.7573363 12.80732486 12.26736244 12.95910252 15.76171875 13.265625 C19.25835778 14.69606824 20.52125158 15.89248628 22.57421875 19.078125 C23.86799833 22.55090177 24.2961378 24.60103721 23.76171875 28.265625 C20.35951654 34.92827099 14.82927107 40.36349826 7.74121094 42.84814453 C-0.15491225 45.13360765 -8.35509959 44.63531898 -16.49609375 44.55859375 C-18.25299719 44.55298891 -20.00990536 44.54872301 -21.76681519 44.54573059 C-26.36012023 44.53435165 -30.95313445 44.50494543 -35.54632568 44.47161865 C-40.24568754 44.44076678 -44.94509701 44.42719314 -49.64453125 44.41210938 C-58.84257473 44.38006815 -68.04040367 44.32895729 -77.23828125 44.265625 C-78.53281335 39.21214724 -77.29696842 36.4873461 -74.80078125 32.078125 C-74.43533203 31.41756104 -74.06988281 30.75699707 -73.69335938 30.07641602 C-68.82663663 21.50226061 -62.19035313 10.75737673 -52.21875 7.6328125 C-47.62919659 6.78188938 -44.39170737 6.49667425 -40.42578125 9.140625 C-39.02039394 10.50585839 -37.62373708 11.88016917 -36.23828125 13.265625 C-35.45453125 12.255 -34.67078125 11.244375 -33.86328125 10.203125 C-25.00635066 -0.12296469 -12.88584875 -6.58668131 0 0 Z " fill="#E91416" transform="translate(224.23828125,65.734375)"/>
<path d="M0 0 C8.08765462 4.66838098 13.94597359 11.87237217 19.59375 19.16015625 C21.47628206 21.6310245 21.47628206 21.6310245 24.50390625 23.4453125 C24.20614403 26.67106985 23.93198422 28.06561882 21.46484375 30.25390625 C20.61148438 30.79144531 19.758125 31.32898438 18.87890625 31.8828125 C15.64704501 33.9899493 12.699645 36.0639289 9.87890625 38.6953125 C5.45736179 42.57713792 0.93565099 44.17511864 -4.87109375 44.8203125 C-12.76031416 44.00418625 -19.56045202 41.17000899 -26.49609375 37.4453125 C-26.49609375 36.7853125 -26.49609375 36.1253125 -26.49609375 35.4453125 C-21.05109375 34.9503125 -21.05109375 34.9503125 -15.49609375 34.4453125 C-15.82609375 33.1253125 -16.15609375 31.8053125 -16.49609375 30.4453125 C-19.2351472 29.07578577 -21.46696707 29.31909889 -24.49609375 29.4453125 C-25.48609375 29.9403125 -25.48609375 29.9403125 -26.49609375 30.4453125 C-30.32739916 30.88068812 -32.19267669 30.60915771 -35.62109375 28.7578125 C-38.39469194 26.52687483 -40.41837319 24.32215635 -42.49609375 21.4453125 C-41.66078125 21.07792969 -41.66078125 21.07792969 -40.80859375 20.703125 C-34.70351905 17.7124634 -31.5045657 14.17883298 -27.4921875 8.76171875 C-24.56208767 5.36142678 -21.63484889 4.07125202 -17.49609375 2.4453125 C-18.81609375 1.7853125 -20.13609375 1.1253125 -21.49609375 0.4453125 C-18.18759284 -6.17168931 -5.21658976 -2.33481169 0 0 Z " fill="#E9181A" transform="translate(104.49609375,142.5546875)"/>
<path d="M0 0 C12.87 0 25.74 0 39 0 C32.25161942 7.87311067 32.25161942 7.87311067 29.58081055 10.5168457 C28.98386887 11.11048416 28.38692719 11.70412262 27.77189636 12.31575012 C27.14978775 12.92956039 26.52767914 13.54337067 25.88671875 14.17578125 C25.23169876 14.82701462 24.57667877 15.47824799 23.90180969 16.1492157 C21.83280619 18.20611227 19.76056866 20.25970113 17.6875 22.3125 C14.93855473 25.03490678 12.19290355 27.76057417 9.44921875 30.48828125 C8.81698898 31.11221268 8.18475922 31.7361441 7.53337097 32.37898254 C4.38124597 35.39435439 4.38124597 35.39435439 2 39 C1.34 39 0.68 39 0 39 C0 26.13 0 13.26 0 0 Z " fill="#FEFAFA" transform="translate(199,222)"/>
<path d="M0 0 C4.08998175 1.80720124 6.66247347 4.19069751 9 8 C9.66040699 13.18891206 8.87649011 16.63567018 6 21 C2.39628543 24.17974815 -1.12357361 24.57339666 -5.77734375 24.42578125 C-9.62277425 23.68913463 -11.35774131 21.8404281 -14 19 C-15.35225582 14.94323255 -15.67765177 11.23718526 -15 7 C-10.65836543 1.48495068 -7.01410905 -0.60466457 0 0 Z " fill="#FEF6F6" transform="translate(179,134)"/>
<path d="M0 0 C6.7793423 0.13835392 6.7793423 0.13835392 9.9375 1.9375 C12.86946287 5.02794735 13.08888798 7.1860875 13.25 11.375 C5.86783439 15.84315287 5.86783439 15.84315287 0.25 15.375 C-0.41 14.385 -1.07 13.395 -1.75 12.375 C-0.76 11.715 0.23 11.055 1.25 10.375 C1.38440778 7.94580135 1.38440778 7.94580135 0.25 5.375 C-2.30518097 3.99206907 -4.95866129 3.15708351 -7.75 2.375 C-5.09500624 -0.27999376 -3.70036703 0.04602447 0 0 Z " fill="#FDF3F3" transform="translate(101.75,157.625)"/>
<path d="M0 0 C4.62 0 9.24 0 14 0 C14 3.96 14 7.92 14 12 C9.21924177 8.45564476 4.48025678 4.92022468 0 1 C0 0.67 0 0.34 0 0 Z " fill="#FDEBEB" transform="translate(132,152)"/>
<path d="M0 0 C0 3.3 0 6.6 0 10 C-5.27749285 9.46148032 -9.25645564 8.22656164 -14 6 C-9.95001278 2.59801074 -5.36373351 0 0 0 Z " fill="#FDEBEB" transform="translate(146,178)"/>
<path d="M0 0 C2.5625 0.3125 2.5625 0.3125 4.375 1.5 C5.96449375 3.9260694 5.92737512 5.46647406 5.5625 8.3125 C3.5625 10.3125 3.5625 10.3125 0.5625 10.5625 C-2.4375 10.3125 -2.4375 10.3125 -4.4375 8.3125 C-4.6875 5.3125 -4.6875 5.3125 -4.4375 2.3125 C-2.4375 0.3125 -2.4375 0.3125 0 0 Z " fill="#E91A1C" transform="translate(175.4375,140.6875)"/>
<path d="M0 0 C0.66 0.33 1.32 0.66 2 1 C0.9024777 3.99324263 0.32317108 4.84610901 -2.625 6.25 C-3.40875 6.4975 -4.1925 6.745 -5 7 C-3.75023244 3.34683329 -3.32901247 2.21934164 0 0 Z " fill="#FCE7E7" transform="translate(203,62)"/>
</svg>
