<svg width="24" height="24" viewBox="0 0 24 24" fill="none" xmlns="http://www.w3.org/2000/svg">
<circle cx="12" cy="12" r="12" fill="white"/>
<path d="M6.27237 17.7258C6.09797 17.5502 6 17.312 6 17.0637C6 16.8153 6.09797 16.5772 6.27237 16.4015L14.744 7.87306H8.69716C8.57498 7.87307 8.454 7.84886 8.34111 7.80181C8.22823 7.75475 8.12566 7.68577 8.03926 7.5988C7.95286 7.51184 7.88432 7.40859 7.83756 7.29495C7.7908 7.18132 7.76673 7.05953 7.76673 6.93653C7.76673 6.81353 7.7908 6.69174 7.83756 6.5781C7.88432 6.46447 7.95286 6.36122 8.03926 6.27425C8.12566 6.18729 8.22823 6.1183 8.34111 6.07125C8.454 6.02419 8.57498 5.99998 8.69716 6H17.0697C17.3164 6 17.5531 6.09867 17.7275 6.2743C17.902 6.44994 18 6.68815 18 6.93653V15.3653C18 15.4883 17.976 15.6101 17.9292 15.7237C17.8825 15.8374 17.814 15.9406 17.7276 16.0276C17.6412 16.1146 17.5386 16.1836 17.4258 16.2306C17.3129 16.2777 17.1919 16.3019 17.0697 16.3019C16.9475 16.3019 16.8266 16.2777 16.7137 16.2306C16.6008 16.1836 16.4982 16.1146 16.4119 16.0276C16.3255 15.9406 16.2569 15.8374 16.2102 15.7237C16.1635 15.6101 16.1394 15.4883 16.1394 15.3653V9.11723L7.5878 17.7258C7.41334 17.9014 7.17676 18 6.93009 18C6.68341 18 6.44683 17.9014 6.27237 17.7258Z" fill="#0176CE"/>
</svg>
