<svg width="29" height="22" viewBox="0 0 29 22" fill="none" xmlns="http://www.w3.org/2000/svg">
<path d="M6.00861 20.9952H21.0565C21.9348 21.0288 22.811 20.8855 23.635 20.5736C24.459 20.2616 25.2148 19.787 25.8591 19.1769C26.5034 18.5669 27.0237 17.8332 27.3902 17.0179C27.7568 16.2026 27.9624 15.3216 27.9953 14.4252C28.0282 13.5289 27.8879 12.6346 27.5822 11.7936C27.2765 10.9526 26.8115 10.1812 26.2138 9.52361C25.616 8.866 24.8972 8.33499 24.0984 7.9609C23.2996 7.5868 22.4364 7.37696 21.5581 7.34335C20.861 5.26679 19.4728 3.50531 17.6349 2.36523C15.797 1.22515 13.6258 0.778597 11.4987 1.10322C9.37167 1.42785 7.42337 2.50312 5.99265 4.14204C4.56194 5.78097 3.73931 7.87986 3.66783 10.0737C2.66936 10.7346 1.89205 11.6905 1.43955 12.8138C0.987049 13.9372 0.880873 15.1747 1.13518 16.3612C1.38949 17.5477 1.9922 18.627 2.86292 19.4549C3.73364 20.2828 4.83099 20.8202 6.00861 20.9952Z" stroke="#0176CE" stroke-width="2" stroke-linecap="round" stroke-linejoin="round"/>
</svg>
