<svg width="36" height="36" viewBox="0 0 36 36" fill="none" xmlns="http://www.w3.org/2000/svg">
<path d="M18 36C27.9411 36 36 27.9411 36 18C36 8.05887 27.9411 0 18 0C8.05887 0 0 8.05887 0 18C0 27.9411 8.05887 36 18 36Z" fill="#E0F2FE"/>
<path d="M10 24H26V18L22 14L18 18L14 14L10 18V24Z" stroke="#0176CE" stroke-width="2" stroke-linecap="round" stroke-linejoin="round"/>
<path d="M14 15.5C14.8284 15.5 15.5 14.8284 15.5 14C15.5 13.1716 14.8284 12.5 14 12.5C13.1716 12.5 12.5 13.1716 12.5 14C12.5 14.8284 13.1716 15.5 14 15.5Z" fill="#0176CE"/>
<path d="M18 13.5C18.8284 13.5 19.5 12.8284 19.5 12C19.5 11.1716 18.8284 10.5 18 10.5C17.1716 10.5 16.5 11.1716 16.5 12C16.5 12.8284 17.1716 13.5 18 13.5Z" fill="#0176CE"/>
<path d="M22 15.5C22.8284 15.5 23.5 14.8284 23.5 14C23.5 13.1716 22.8284 12.5 22 12.5C21.1716 12.5 20.5 13.1716 20.5 14C20.5 14.8284 21.1716 15.5 22 15.5Z" fill="#0176CE"/>
</svg>
