<svg width="36" height="36" viewBox="0 0 36 36" fill="none" xmlns="http://www.w3.org/2000/svg">
<path d="M18 36C27.9411 36 36 27.9411 36 18C36 8.05887 27.9411 0 18 0C8.05887 0 0 8.05887 0 18C0 27.9411 8.05887 36 18 36Z" fill="#E0F2FE"/>
<path d="M23 17H13C12.4477 17 12 17.4477 12 18V25C12 25.5523 12.4477 26 13 26H23C23.5523 26 24 25.5523 24 25V18C24 17.4477 23.5523 17 23 17Z" stroke="#0176CE" stroke-width="2" stroke-linecap="round" stroke-linejoin="round"/>
<path d="M14 17V13C14 11 15 9 18 9C21 9 22 11 22 13" stroke="#0176CE" stroke-width="2" stroke-linecap="round" stroke-linejoin="round"/>
<path d="M18 23C18.8284 23 19.5 22.3284 19.5 21.5C19.5 20.6716 18.8284 20 18 20C17.1716 20 16.5 20.6716 16.5 21.5C16.5 22.3284 17.1716 23 18 23Z" fill="#0176CE"/>
</svg>
