<svg width="43" height="40" viewBox="0 0 43 40" fill="none" xmlns="http://www.w3.org/2000/svg">
<path d="M2.5 18.75C1.83696 18.75 1.20107 18.4866 0.732233 18.0178C0.263392 17.5489 0 16.913 0 16.25V2.5C0 1.83696 0.263392 1.20107 0.732233 0.732233C1.20107 0.263392 1.83696 0 2.5 0L15 0C15.663 0 16.2989 0.263392 16.7678 0.732233C17.2366 1.20107 17.5 1.83696 17.5 2.5V19.5375C17.5035 24.475 15.7416 29.2512 12.5324 33.0036C9.32327 36.756 4.87831 39.2375 0 40L0 28.75C1.98912 28.75 3.89678 27.9598 5.3033 26.5533C6.70982 25.1468 7.5 23.2391 7.5 21.25V18.75H2.5ZM2.5 30.925V36.7375C6.11077 35.6685 9.27957 33.4616 11.5343 30.4455C13.789 27.4295 15.009 23.7657 15.0125 20V18.75H15V3.75C15 3.41848 14.8683 3.10054 14.6339 2.86612C14.3995 2.6317 14.0815 2.5 13.75 2.5H3.75C3.41848 2.5 3.10054 2.6317 2.86612 2.86612C2.6317 3.10054 2.5 3.41848 2.5 3.75V15C2.5 15.1642 2.53233 15.3267 2.59515 15.4784C2.65797 15.63 2.75004 15.7678 2.86612 15.8839C2.98219 16 3.11999 16.092 3.27165 16.1549C3.4233 16.2177 3.58585 16.25 3.75 16.25H10V21.25C9.99835 23.4657 9.26089 25.6181 7.90341 27.3692C6.54594 29.1204 4.64532 30.3711 2.5 30.925ZM27.5 0H40C40.3283 0 40.6534 0.0646644 40.9567 0.190301C41.26 0.315938 41.5356 0.500087 41.7678 0.732233C41.9999 0.96438 42.1841 1.23998 42.3097 1.54329C42.4353 1.84661 42.5 2.1717 42.5 2.5V19.5375C42.5035 24.475 40.7416 29.2512 37.5324 33.0036C34.3233 36.756 29.8783 39.2375 25 40V28.75C26.9891 28.75 28.8968 27.9598 30.3033 26.5533C31.7098 25.1468 32.5 23.2391 32.5 21.25V18.75H27.5C26.837 18.75 26.2011 18.4866 25.7322 18.0178C25.2634 17.5489 25 16.913 25 16.25V2.5C25 1.83696 25.2634 1.20107 25.7322 0.732233C26.2011 0.263392 26.837 0 27.5 0ZM27.5 15C27.5 15.1642 27.5323 15.3267 27.5952 15.4784C27.658 15.63 27.75 15.7678 27.8661 15.8839C27.9822 16 28.12 16.092 28.2716 16.1549C28.4233 16.2177 28.5858 16.25 28.75 16.25H35V21.25C34.9984 23.4657 34.2609 25.6181 32.9034 27.3692C31.5459 29.1204 29.6453 30.3711 27.5 30.925V36.7375C31.1108 35.6685 34.2796 33.4616 36.5343 30.4455C38.789 27.4295 40.009 23.7657 40.0125 20V18.75H40V3.75C40 3.41848 39.8683 3.10054 39.6339 2.86612C39.3995 2.6317 39.0815 2.5 38.75 2.5H28.75C28.4185 2.5 28.1005 2.6317 27.8661 2.86612C27.6317 3.10054 27.5 3.41848 27.5 3.75V15Z" fill="#C5DFFD"/>
</svg>
